# xmcd CD database file
#
# Track frame offsets:
#	150
#	10093
#	21344
#	38825
#	49937
#	69409
#	83430
#	97056
#	112137
#	123773
#
# Disc length: 1837 seconds
#
# Revision: 0
# Processed by: cddbd v1.5.2PL0 Copyright (c) Steve Scherf et al.
# Submitted via: CDex 1.70beta2
#
DISCID=7a072b0a
DTITLE=Mahogany Ridge - Cdn. - TO - A Ride Through Your "Country Side"
DYEAR=1900
DGENRE=Country
TTITLE0=When Will I Be Loved Master
TTITLE1=Broken Lady Master
TTITLE2=Choices Master
TTITLE3=The Whiskey Aint Workin' Master
TTITLE4=Little Rock Master
TTITLE5=Oh Lonesome Me Master
TTITLE6=Wasted Days and Wasted Nights Master
TTITLE7=Devil Woman Master
TTITLE8=Its Only Make Believe Master
TTITLE9=Keep Your Hands To Yourself Master
EXTD=
EXTT0=
EXTT1=
EXTT2=
EXTT3=
EXTT4=
EXTT5=
EXTT6=
EXTT7=
EXTT8=
EXTT9=
PLAYORDER=
